<?xml version="1.0" encoding="utf-8"?>
<!-- Generator: Adobe Illustrator 24.1.1, SVG Export Plug-In . SVG Version: 6.00 Build 0)  -->
<svg version="1.1" id="Layer_1" xmlns="http://www.w3.org/2000/svg" xmlns:xlink="http://www.w3.org/1999/xlink" x="0px" y="0px"
	 viewBox="0 0 512 512" style="enable-background:new 0 0 512 512;" xml:space="preserve">
<style type="text/css">
	.st0{fill:#2396ED;}
</style>
<g>
	<path class="st0" d="M140.6,216.6l3.9,2.8c6.8,5.5,10.7,11.6,11.5,18.7c7.3-1.4,16.6-0.4,20.6,2.5l3.7,2.3l-0.7,1.4
		c-1.2,2.6-1.5,3.3-1.7,3.7c-6.6,13.2-19.6,13.4-25.7,13.2c-15.4,38.6-48.2,59.9-92.6,59.9c-20.5,0-36-6.5-46.5-19.4
		c-13.9-16.9-13.9-38.9-12.7-46l0.3-1.4h122.4c6.4,0,11.3-1.8,13.7-3.2c-2.5-3.9-3.4-8.3-3.6-10.7c-0.5-7,1.2-14.4,4.6-19.7
		L140.6,216.6z M246.6,224.8c1.4,0,2.5,0.5,3.5,1.4c0.9,0.9,1.4,2.1,1.4,3.5v43.6c0,7.3-2.5,13.4-7.6,18.4
		c-5.2,5.1-11.3,7.6-18.4,7.6c-7.2,0-13.3-2.5-18.4-7.6c-5.1-5.1-7.6-11.2-7.6-18.4c0-7.2,2.5-13.3,7.6-18.4
		c5.1-5.1,11.2-7.6,18.4-7.6c6.2,0,11.6,1.9,16.3,5.7v-23.2c0-1.4,0.5-2.6,1.4-3.5C244.1,225.3,245.2,224.8,246.6,224.8z
		 M283.1,247.2c7.1,0,13.3,2.5,18.4,7.6c2.5,2.5,4.4,5.4,5.7,8.4c1.3,3.1,1.9,6.4,1.9,10c0,7.3-2.5,13.4-7.6,18.4
		c-5.2,5.1-11.3,7.6-18.4,7.6c-7.2,0-13.3-2.5-18.4-7.6c-5.1-5.1-7.6-11.2-7.6-18.4c0-7.2,2.5-13.3,7.6-18.4
		C269.8,249.7,275.9,247.2,283.1,247.2z M340.7,247.2c6.5,0,12.2,2.1,17,6.3c1.1,1,1.7,2.2,1.7,3.7c0,1.4-0.5,2.6-1.4,3.5
		c-0.9,0.9-2.1,1.4-3.5,1.4c-1.2,0-2.2-0.4-3.2-1.1c-1.6-1.3-3.2-2.3-5-3c-1.7-0.7-3.6-1-5.7-1c-2.3,0-4.4,0.4-6.4,1.3
		c-2,0.9-3.7,2-5.2,3.5c-1.5,1.5-2.7,3.2-3.5,5.2c-0.9,2-1.3,4.1-1.3,6.4c0,2.3,0.4,4.4,1.3,6.4c0.9,2,2,3.7,3.5,5.2
		s3.2,2.6,5.2,3.5c2,0.9,4.1,1.3,6.4,1.3c2,0,3.9-0.3,5.7-1c1.7-0.7,3.4-1.7,4.9-3c0.9-0.7,1.9-1,3.1-1c1.4,0,2.6,0.5,3.5,1.4
		s1.4,2.1,1.4,3.5c0,1.4-0.5,2.6-1.5,3.6c-4.8,4.2-10.5,6.3-17,6.3c-7.2,0-13.3-2.5-18.4-7.6c-5.1-5.1-7.6-11.2-7.6-18.4
		c0-7.2,2.5-13.3,7.6-18.4C327.3,249.7,333.5,247.2,340.7,247.2z M369.7,224.8c1.3,0,2.5,0.5,3.4,1.4s1.4,2.1,1.4,3.5V266l27.8-18.1
		c0.8-0.5,1.6-0.7,2.6-0.7c0.7,0,1.3,0.1,1.9,0.4c0.6,0.2,1.1,0.6,1.5,1c0.4,0.4,0.8,1,1,1.6s0.4,1.2,0.4,1.9c0,1.7-0.6,3-1.9,3.9
		l-19.5,12.7l20,22.5c0.9,1,1.3,2.1,1.3,3.4c0,0.7-0.1,1.3-0.4,1.9c-0.3,0.6-0.6,1.1-1,1.6c-0.4,0.5-0.9,0.8-1.5,1s-1.2,0.4-1.9,0.4
		c-1.3,0-2.4-0.4-3.3-1.3l-21.5-24.2l-5.7,3.7v16.8c0,1.3-0.5,2.5-1.4,3.4s-2.1,1.4-3.4,1.4c-1.4,0-2.5-0.5-3.5-1.4
		s-1.4-2.1-1.4-3.4v-64.7c0-1.4,0.5-2.5,1.4-3.5S368.4,224.8,369.7,224.8z M441.2,247.2c7.1,0,13.3,2.5,18.4,7.6
		c2.5,2.5,4.5,5.3,5.7,8.4c1.3,3.1,1.9,6.4,1.9,10c0,1.4-0.5,2.6-1.4,3.5c-0.9,0.9-2.1,1.4-3.5,1.4h-36.9c0.5,1.7,1.3,3.3,2.3,4.7
		c1,1.4,2.2,2.6,3.6,3.6c1.4,1,2.9,1.8,4.6,2.4c1.7,0.6,3.4,0.8,5.2,0.8c2,0,3.9-0.3,5.6-0.9c1.7-0.6,3.3-1.6,4.7-2.8
		c0.9-0.8,2-1.2,3.2-1.2c1.4,0,2.6,0.5,3.5,1.4c0.9,0.9,1.4,2.1,1.4,3.5c0,1.4-0.5,2.5-1.4,3.5c-4.8,4.2-10.5,6.3-17,6.3
		c-7.2,0-13.3-2.5-18.4-7.6c-5.1-5.1-7.6-11.2-7.6-18.4c0-7.2,2.5-13.3,7.6-18.4C427.9,249.7,434,247.2,441.2,247.2z M498.7,247.2
		c1.4,0,2.8,0.1,4.4,0.3c1.6,0.2,3,0.5,4.3,1c1.3,0.5,2.4,1.1,3.3,2c0.9,0.8,1.3,1.9,1.3,3.3c0,0.7-0.1,1.3-0.4,1.9s-0.6,1.1-1,1.6
		c-0.4,0.4-0.9,0.8-1.5,1c-0.6,0.2-1.2,0.4-1.9,0.4c-0.6,0-1.3-0.2-2-0.5c-2-0.8-4.1-1.2-6.4-1.2c-2.3,0-4.4,0.4-6.4,1.3
		c-2,0.9-3.7,2-5.2,3.5c-1.5,1.5-2.6,3.2-3.5,5.2c-0.9,2-1.3,4.1-1.3,6.4v21.2c0,1.3-0.5,2.5-1.4,3.4s-2.1,1.4-3.4,1.4
		c-1.4,0-2.5-0.5-3.5-1.4s-1.4-2.1-1.4-3.4V252c0-1.3,0.5-2.5,1.4-3.4s2.1-1.4,3.5-1.4c1.3,0,2.5,0.5,3.4,1.4s1.4,2.1,1.4,3.4v0.9
		c2.3-1.9,4.9-3.3,7.6-4.3C492.7,247.6,495.6,247.2,498.7,247.2z M225.4,256.9c-2.3,0-4.4,0.4-6.4,1.3c-2,0.9-3.7,2-5.2,3.5
		c-1.5,1.5-2.6,3.2-3.5,5.2c-0.9,2-1.3,4.1-1.3,6.3c0,2.2,0.4,4.3,1.3,6.3c0.9,2,2,3.7,3.5,5.2c1.5,1.5,3.2,2.6,5.2,3.5
		c2,0.9,4.1,1.3,6.4,1.3c2.3,0,4.4-0.4,6.4-1.3c2-0.9,3.7-2,5.2-3.5c1.5-1.5,2.6-3.2,3.5-5.2c0.9-2,1.3-4.1,1.3-6.3
		c0-2.2-0.4-4.3-1.3-6.3c-0.9-2-2-3.7-3.5-5.2c-1.5-1.5-3.2-2.7-5.2-3.5C229.8,257.3,227.7,256.9,225.4,256.9z M283.1,256.9
		c-2.3,0-4.4,0.4-6.4,1.3c-2,0.9-3.7,2-5.2,3.5c-1.5,1.5-2.6,3.2-3.5,5.2c-0.9,2-1.3,4.1-1.3,6.3c0,2.2,0.4,4.3,1.3,6.3
		c0.9,2,2,3.7,3.5,5.2c1.5,1.5,3.2,2.6,5.2,3.5c2,0.9,4.1,1.3,6.4,1.3c2.3,0,4.4-0.4,6.4-1.3c2-0.9,3.7-2,5.2-3.5
		c1.5-1.5,2.6-3.2,3.5-5.2c0.9-2,1.3-4.1,1.3-6.3c0-2.2-0.4-4.3-1.3-6.3c-0.9-2-2-3.7-3.5-5.2c-1.5-1.5-3.2-2.7-5.2-3.5
		C287.5,257.3,285.4,256.9,283.1,256.9z M441.2,256.9c-1.8,0-3.5,0.3-5.2,0.8c-1.7,0.6-3.2,1.3-4.6,2.4c-1.4,1-2.6,2.2-3.6,3.6
		c-1,1.4-1.8,3-2.3,4.7h31.4c-0.5-1.7-1.3-3.3-2.4-4.7c-1-1.4-2.2-2.6-3.6-3.6c-1.4-1-2.9-1.8-4.6-2.4
		C444.7,257.2,443,256.9,441.2,256.9z M32.6,233.2v17.6H14v-17.6H32.6z M54.6,233.2v17.6H36v-17.6H54.6z M76.6,233.2v17.6H58v-17.6
		H76.6z M98.6,233.2v17.6H80v-17.6H98.6z M120.6,233.2v17.6H102v-17.6H120.6z M98.6,212.1v17.6H80v-17.6H98.6z M76.6,212.1v17.6H58
		v-17.6H76.6z M54.6,212.1v17.6H36v-17.6H54.6z M98.6,190.9v17.6H80v-17.6H98.6z"/>
</g>
</svg>
